<mxfile host="app.diagrams.net" modified="2022-01-02T20:49:49.034Z" agent="5.0 (Macintosh; Intel Mac OS X 10_15_7) AppleWebKit/537.36 (KHTML, like Gecko) Chrome/96.0.4664.110 Safari/537.36" etag="dx2OwvaR_v5qsoHn7fu5" version="15.9.5" type="github">
  <diagram id="kgpKYQtTHZ0yAKxKKP6v" name="Page-1">
    <mxGraphModel dx="1619" dy="2143" grid="1" gridSize="10" guides="1" tooltips="1" connect="1" arrows="1" fold="1" page="1" pageScale="1" pageWidth="850" pageHeight="1100" math="0" shadow="0">
      <root>
        <mxCell id="0" />
        <mxCell id="1" parent="0" />
        <mxCell id="QZAKfAFqV-frmJR9LW_r-23" style="edgeStyle=orthogonalEdgeStyle;rounded=0;orthogonalLoop=1;jettySize=auto;html=1;exitX=0.5;exitY=0;exitDx=0;exitDy=0;exitPerimeter=0;fontFamily=Helvetica;fontSize=15;strokeColor=#FF0080;" parent="1" source="QZAKfAFqV-frmJR9LW_r-1" target="QZAKfAFqV-frmJR9LW_r-2" edge="1">
          <mxGeometry relative="1" as="geometry">
            <Array as="points">
              <mxPoint x="75" y="15" />
            </Array>
          </mxGeometry>
        </mxCell>
        <mxCell id="0kT4AOMkLd3rgz62vo-s-46" value="&lt;font color=&quot;#ffffff&quot; style=&quot;background-color: rgb(255 , 0 , 128)&quot;&gt;Register&lt;/font&gt;" style="edgeLabel;html=1;align=center;verticalAlign=middle;resizable=0;points=[];fontSize=15;fontColor=#990099;" vertex="1" connectable="0" parent="QZAKfAFqV-frmJR9LW_r-23">
          <mxGeometry x="-0.1071" y="3" relative="1" as="geometry">
            <mxPoint as="offset" />
          </mxGeometry>
        </mxCell>
        <mxCell id="QZAKfAFqV-frmJR9LW_r-124" style="edgeStyle=orthogonalEdgeStyle;rounded=0;orthogonalLoop=1;jettySize=auto;html=1;entryX=0;entryY=0.5;entryDx=0;entryDy=0;fontFamily=Helvetica;fontSize=15;startArrow=none;startFill=0;endArrow=classic;endFill=1;strokeColor=#B81A1A;" parent="1" source="QZAKfAFqV-frmJR9LW_r-1" target="QZAKfAFqV-frmJR9LW_r-17" edge="1">
          <mxGeometry relative="1" as="geometry">
            <Array as="points">
              <mxPoint x="75" y="390" />
            </Array>
          </mxGeometry>
        </mxCell>
        <mxCell id="QZAKfAFqV-frmJR9LW_r-125" value="&lt;font color=&quot;#ffffff&quot; style=&quot;background-color: rgb(184 , 26 , 26)&quot;&gt;Confirm the email&lt;/font&gt;" style="edgeLabel;html=1;align=center;verticalAlign=middle;resizable=0;points=[];fontSize=15;fontFamily=Helvetica;" parent="QZAKfAFqV-frmJR9LW_r-124" vertex="1" connectable="0">
          <mxGeometry x="-0.0466" y="2" relative="1" as="geometry">
            <mxPoint x="26" y="2" as="offset" />
          </mxGeometry>
        </mxCell>
        <mxCell id="QZAKfAFqV-frmJR9LW_r-1" value="" style="shape=umlActor;verticalLabelPosition=bottom;verticalAlign=top;html=1;outlineConnect=0;fontFamily=Helvetica;fontStyle=0;fontSize=15;fillColor=#f0a30a;strokeColor=#BD7000;fontColor=#000000;" parent="1" vertex="1">
          <mxGeometry x="50" y="230" width="50" height="90" as="geometry" />
        </mxCell>
        <mxCell id="QZAKfAFqV-frmJR9LW_r-11" style="edgeStyle=orthogonalEdgeStyle;rounded=0;orthogonalLoop=1;jettySize=auto;html=1;exitX=1;exitY=0.5;exitDx=0;exitDy=0;entryX=0;entryY=0.5;entryDx=0;entryDy=0;fontFamily=Helvetica;fontStyle=0;fontSize=15;strokeColor=#FF0080;" parent="1" source="QZAKfAFqV-frmJR9LW_r-2" target="QZAKfAFqV-frmJR9LW_r-4" edge="1">
          <mxGeometry relative="1" as="geometry" />
        </mxCell>
        <mxCell id="QZAKfAFqV-frmJR9LW_r-2" value="RegistrationController" style="html=1;fillColor=#dae8fc;strokeColor=#6c8ebf;fontFamily=Helvetica;fontStyle=0;fontSize=15;" parent="1" vertex="1">
          <mxGeometry x="140" y="-10" width="210" height="50" as="geometry" />
        </mxCell>
        <mxCell id="QZAKfAFqV-frmJR9LW_r-86" style="edgeStyle=orthogonalEdgeStyle;rounded=0;orthogonalLoop=1;jettySize=auto;html=1;exitX=0.5;exitY=0;exitDx=0;exitDy=0;entryX=0;entryY=0.25;entryDx=0;entryDy=0;fontFamily=Helvetica;fontSize=15;strokeColor=#FF0080;" parent="1" source="QZAKfAFqV-frmJR9LW_r-4" target="QZAKfAFqV-frmJR9LW_r-6" edge="1">
          <mxGeometry relative="1" as="geometry" />
        </mxCell>
        <mxCell id="QZAKfAFqV-frmJR9LW_r-102" value="&lt;span style=&quot;background-color: rgb(248 , 249 , 250)&quot;&gt;Call to create a user&lt;/span&gt;" style="edgeLabel;html=1;align=center;verticalAlign=middle;resizable=0;points=[];fontSize=15;fontFamily=Helvetica;fontColor=#FF0080;" parent="QZAKfAFqV-frmJR9LW_r-86" vertex="1" connectable="0">
          <mxGeometry x="-0.0791" y="-4" relative="1" as="geometry">
            <mxPoint y="48" as="offset" />
          </mxGeometry>
        </mxCell>
        <mxCell id="QZAKfAFqV-frmJR9LW_r-105" style="edgeStyle=orthogonalEdgeStyle;rounded=0;orthogonalLoop=1;jettySize=auto;html=1;exitX=1;exitY=0.5;exitDx=0;exitDy=0;entryX=0.5;entryY=0;entryDx=0;entryDy=0;fontFamily=Helvetica;fontSize=15;strokeColor=#550DFF;" parent="1" source="QZAKfAFqV-frmJR9LW_r-4" target="QZAKfAFqV-frmJR9LW_r-29" edge="1">
          <mxGeometry relative="1" as="geometry" />
        </mxCell>
        <mxCell id="QZAKfAFqV-frmJR9LW_r-106" value="Call to create a token" style="edgeLabel;html=1;align=center;verticalAlign=middle;resizable=0;points=[];fontSize=15;fontFamily=Helvetica;fontColor=#550DFF;" parent="QZAKfAFqV-frmJR9LW_r-105" vertex="1" connectable="0">
          <mxGeometry x="-0.0921" y="1" relative="1" as="geometry">
            <mxPoint as="offset" />
          </mxGeometry>
        </mxCell>
        <mxCell id="QZAKfAFqV-frmJR9LW_r-4" value="RegistrationService" style="rounded=0;whiteSpace=wrap;html=1;fontFamily=Helvetica;fontStyle=0;fontSize=15;fillColor=#fff2cc;strokeColor=#d6b656;" parent="1" vertex="1">
          <mxGeometry x="450" y="50" width="160" height="60" as="geometry" />
        </mxCell>
        <mxCell id="QZAKfAFqV-frmJR9LW_r-98" style="edgeStyle=orthogonalEdgeStyle;rounded=0;orthogonalLoop=1;jettySize=auto;html=1;exitX=1;exitY=0.5;exitDx=0;exitDy=0;fontFamily=Helvetica;fontSize=15;strokeColor=#FF0080;" parent="1" source="QZAKfAFqV-frmJR9LW_r-6" target="QZAKfAFqV-frmJR9LW_r-93" edge="1">
          <mxGeometry relative="1" as="geometry" />
        </mxCell>
        <mxCell id="QZAKfAFqV-frmJR9LW_r-101" value="Call DAO to save" style="edgeLabel;html=1;align=center;verticalAlign=middle;resizable=0;points=[];fontSize=15;fontFamily=Helvetica;fontColor=#FF0080;" parent="QZAKfAFqV-frmJR9LW_r-98" vertex="1" connectable="0">
          <mxGeometry x="-0.3143" y="1" relative="1" as="geometry">
            <mxPoint x="10" y="1" as="offset" />
          </mxGeometry>
        </mxCell>
        <mxCell id="QZAKfAFqV-frmJR9LW_r-130" style="edgeStyle=orthogonalEdgeStyle;rounded=0;orthogonalLoop=1;jettySize=auto;html=1;exitX=0.5;exitY=1;exitDx=0;exitDy=0;entryX=0.5;entryY=1;entryDx=0;entryDy=0;fontFamily=Helvetica;fontSize=15;fontColor=#00994D;startArrow=none;startFill=0;endArrow=classic;endFill=1;strokeColor=#999900;" parent="1" source="QZAKfAFqV-frmJR9LW_r-6" target="QZAKfAFqV-frmJR9LW_r-93" edge="1">
          <mxGeometry relative="1" as="geometry">
            <Array as="points">
              <mxPoint x="710" y="20" />
              <mxPoint x="1020" y="20" />
            </Array>
          </mxGeometry>
        </mxCell>
        <mxCell id="QZAKfAFqV-frmJR9LW_r-131" value="&lt;font color=&quot;#999900&quot;&gt;Call DAO to update&lt;/font&gt;" style="edgeLabel;html=1;align=center;verticalAlign=middle;resizable=0;points=[];fontSize=15;fontFamily=Helvetica;fontColor=#00994D;" parent="QZAKfAFqV-frmJR9LW_r-130" vertex="1" connectable="0">
          <mxGeometry x="-0.203" y="3" relative="1" as="geometry">
            <mxPoint as="offset" />
          </mxGeometry>
        </mxCell>
        <mxCell id="QZAKfAFqV-frmJR9LW_r-6" value="UserService" style="rounded=0;whiteSpace=wrap;html=1;fontFamily=Helvetica;fontStyle=0;fontSize=15;fillColor=#fff2cc;strokeColor=#d6b656;" parent="1" vertex="1">
          <mxGeometry x="650" y="-80" width="120" height="60" as="geometry" />
        </mxCell>
        <mxCell id="QZAKfAFqV-frmJR9LW_r-109" style="edgeStyle=orthogonalEdgeStyle;rounded=0;orthogonalLoop=1;jettySize=auto;html=1;exitX=0;exitY=0.5;exitDx=0;exitDy=0;entryX=1;entryY=0.3333333333333333;entryDx=0;entryDy=0;entryPerimeter=0;fontFamily=Helvetica;fontSize=15;strokeColor=#550DFF;" parent="1" source="QZAKfAFqV-frmJR9LW_r-7" target="QZAKfAFqV-frmJR9LW_r-1" edge="1">
          <mxGeometry relative="1" as="geometry">
            <Array as="points">
              <mxPoint x="270" y="230" />
              <mxPoint x="270" y="260" />
            </Array>
          </mxGeometry>
        </mxCell>
        <mxCell id="QZAKfAFqV-frmJR9LW_r-7" value="EmailService" style="rounded=0;whiteSpace=wrap;html=1;fontFamily=Helvetica;fontStyle=0;fontSize=15;fillColor=#fff2cc;strokeColor=#d6b656;" parent="1" vertex="1">
          <mxGeometry x="470" y="200" width="120" height="60" as="geometry" />
        </mxCell>
        <mxCell id="QZAKfAFqV-frmJR9LW_r-126" style="edgeStyle=orthogonalEdgeStyle;rounded=0;orthogonalLoop=1;jettySize=auto;html=1;exitX=1;exitY=0.5;exitDx=0;exitDy=0;entryX=0.25;entryY=1;entryDx=0;entryDy=0;fontFamily=Helvetica;fontSize=15;startArrow=none;startFill=0;endArrow=classic;endFill=1;strokeColor=#B81A1A;" parent="1" source="QZAKfAFqV-frmJR9LW_r-17" target="QZAKfAFqV-frmJR9LW_r-29" edge="1">
          <mxGeometry relative="1" as="geometry" />
        </mxCell>
        <mxCell id="QZAKfAFqV-frmJR9LW_r-128" value="&lt;span style=&quot;background-color: rgb(248 , 249 , 250)&quot;&gt;Call to validate the token&lt;/span&gt;" style="edgeLabel;html=1;align=center;verticalAlign=middle;resizable=0;points=[];fontSize=15;fontFamily=Helvetica;fontColor=#B81A1A;" parent="QZAKfAFqV-frmJR9LW_r-126" vertex="1" connectable="0">
          <mxGeometry x="-0.4891" relative="1" as="geometry">
            <mxPoint x="33" as="offset" />
          </mxGeometry>
        </mxCell>
        <mxCell id="QZAKfAFqV-frmJR9LW_r-17" value="ConfirmEmailTokenController" style="whiteSpace=wrap;html=1;fontSize=15;fontFamily=Helvetica;fontStyle=0;fillColor=#dae8fc;strokeColor=#6c8ebf;" parent="1" vertex="1">
          <mxGeometry x="380" y="360" width="250" height="60" as="geometry" />
        </mxCell>
        <mxCell id="QZAKfAFqV-frmJR9LW_r-36" style="edgeStyle=orthogonalEdgeStyle;rounded=0;orthogonalLoop=1;jettySize=auto;html=1;exitX=0.5;exitY=1;exitDx=0;exitDy=0;fontFamily=Helvetica;fontSize=15;entryX=0;entryY=0.5;entryDx=0;entryDy=0;strokeColor=#B81A1A;" parent="1" source="QZAKfAFqV-frmJR9LW_r-29" target="QZAKfAFqV-frmJR9LW_r-35" edge="1">
          <mxGeometry relative="1" as="geometry">
            <mxPoint x="1070" y="220" as="targetPoint" />
            <Array as="points">
              <mxPoint x="990" y="260" />
            </Array>
          </mxGeometry>
        </mxCell>
        <mxCell id="QZAKfAFqV-frmJR9LW_r-118" value="&lt;span style=&quot;background-color: rgb(248 , 249 , 250)&quot;&gt;Validate the token&lt;/span&gt;" style="edgeLabel;html=1;align=center;verticalAlign=middle;resizable=0;points=[];fontSize=15;fontFamily=Helvetica;fontColor=#B81A1A;" parent="QZAKfAFqV-frmJR9LW_r-36" vertex="1" connectable="0">
          <mxGeometry x="-0.1574" y="1" relative="1" as="geometry">
            <mxPoint x="88" y="1" as="offset" />
          </mxGeometry>
        </mxCell>
        <mxCell id="QZAKfAFqV-frmJR9LW_r-107" style="edgeStyle=orthogonalEdgeStyle;rounded=0;orthogonalLoop=1;jettySize=auto;html=1;exitX=0;exitY=0.5;exitDx=0;exitDy=0;entryX=1;entryY=0.5;entryDx=0;entryDy=0;fontFamily=Helvetica;fontSize=15;strokeColor=#550DFF;" parent="1" source="QZAKfAFqV-frmJR9LW_r-29" target="QZAKfAFqV-frmJR9LW_r-7" edge="1">
          <mxGeometry relative="1" as="geometry" />
        </mxCell>
        <mxCell id="QZAKfAFqV-frmJR9LW_r-108" value="&lt;span style=&quot;background-color: rgb(248 , 249 , 250)&quot;&gt;Call to send a email with token&lt;/span&gt;" style="edgeLabel;html=1;align=center;verticalAlign=middle;resizable=0;points=[];fontSize=15;fontFamily=Helvetica;fontColor=#550DFF;" parent="QZAKfAFqV-frmJR9LW_r-107" vertex="1" connectable="0">
          <mxGeometry x="-0.2938" y="-2" relative="1" as="geometry">
            <mxPoint as="offset" />
          </mxGeometry>
        </mxCell>
        <mxCell id="QZAKfAFqV-frmJR9LW_r-114" style="edgeStyle=orthogonalEdgeStyle;rounded=0;orthogonalLoop=1;jettySize=auto;html=1;exitX=0.75;exitY=0;exitDx=0;exitDy=0;entryX=0.75;entryY=1;entryDx=0;entryDy=0;fontFamily=Helvetica;fontSize=15;strokeColor=#550DFF;" parent="1" source="QZAKfAFqV-frmJR9LW_r-29" target="QZAKfAFqV-frmJR9LW_r-113" edge="1">
          <mxGeometry relative="1" as="geometry" />
        </mxCell>
        <mxCell id="QZAKfAFqV-frmJR9LW_r-115" value="Call&amp;nbsp; DAO to save" style="edgeLabel;html=1;align=center;verticalAlign=middle;resizable=0;points=[];fontSize=15;fontFamily=Helvetica;fontColor=#550DFF;" parent="QZAKfAFqV-frmJR9LW_r-114" vertex="1" connectable="0">
          <mxGeometry x="-0.3023" y="3" relative="1" as="geometry">
            <mxPoint x="59" as="offset" />
          </mxGeometry>
        </mxCell>
        <mxCell id="QZAKfAFqV-frmJR9LW_r-29" value="ConfirmEmailTokenService" style="whiteSpace=wrap;html=1;fontFamily=Helvetica;fontSize=15;fillColor=#fff2cc;strokeColor=#d6b656;" parent="1" vertex="1">
          <mxGeometry x="880" y="100" width="220" height="60" as="geometry" />
        </mxCell>
        <mxCell id="QZAKfAFqV-frmJR9LW_r-94" style="edgeStyle=orthogonalEdgeStyle;rounded=0;orthogonalLoop=1;jettySize=auto;html=1;exitX=0.5;exitY=0;exitDx=0;exitDy=0;fontFamily=Helvetica;fontSize=15;strokeColor=#999900;entryX=0.5;entryY=0;entryDx=0;entryDy=0;" parent="1" source="QZAKfAFqV-frmJR9LW_r-35" target="QZAKfAFqV-frmJR9LW_r-6" edge="1">
          <mxGeometry relative="1" as="geometry">
            <mxPoint x="740" y="-360" as="targetPoint" />
            <Array as="points">
              <mxPoint x="1375" y="-180" />
              <mxPoint x="710" y="-180" />
            </Array>
          </mxGeometry>
        </mxCell>
        <mxCell id="QZAKfAFqV-frmJR9LW_r-95" value="&lt;span style=&quot;background-color: rgb(248 , 249 , 250)&quot;&gt;Call to enable the user&lt;/span&gt;" style="edgeLabel;html=1;align=center;verticalAlign=middle;resizable=0;points=[];fontSize=15;fontFamily=Helvetica;fontColor=#999900;" parent="QZAKfAFqV-frmJR9LW_r-94" vertex="1" connectable="0">
          <mxGeometry x="0.0667" y="-1" relative="1" as="geometry">
            <mxPoint as="offset" />
          </mxGeometry>
        </mxCell>
        <mxCell id="QZAKfAFqV-frmJR9LW_r-35" value="is token valid?" style="rhombus;whiteSpace=wrap;html=1;fontFamily=Helvetica;fontSize=15;fillColor=#f8cecc;strokeColor=#b85450;" parent="1" vertex="1">
          <mxGeometry x="1300" y="190" width="150" height="140" as="geometry" />
        </mxCell>
        <mxCell id="QZAKfAFqV-frmJR9LW_r-40" value="&lt;font color=&quot;#999900&quot;&gt;True&lt;/font&gt;" style="text;html=1;resizable=0;autosize=1;align=center;verticalAlign=middle;points=[];fillColor=none;strokeColor=none;rounded=0;fontFamily=Helvetica;fontSize=15;" parent="1" vertex="1">
          <mxGeometry x="1380" y="160" width="50" height="20" as="geometry" />
        </mxCell>
        <mxCell id="QZAKfAFqV-frmJR9LW_r-41" value="&lt;font size=&quot;1&quot;&gt;&lt;b style=&quot;font-size: 30px&quot;&gt;User Registration Workflow&lt;/b&gt;&lt;/font&gt;" style="text;html=1;resizable=0;autosize=1;align=center;verticalAlign=middle;points=[];fillColor=#f8cecc;strokeColor=#b85450;rounded=0;fontFamily=Helvetica;fontSize=15;gradientColor=none;" parent="1" vertex="1">
          <mxGeometry x="70" y="-280" width="410" height="30" as="geometry" />
        </mxCell>
        <mxCell id="QZAKfAFqV-frmJR9LW_r-119" style="edgeStyle=orthogonalEdgeStyle;rounded=0;orthogonalLoop=1;jettySize=auto;html=1;exitX=1;exitY=0.5;exitDx=0;exitDy=0;exitPerimeter=0;entryX=1;entryY=0.5;entryDx=0;entryDy=0;fontFamily=Helvetica;fontSize=15;strokeColor=#B81A1A;startArrow=none;startFill=0;endArrow=classic;endFill=1;" parent="1" source="QZAKfAFqV-frmJR9LW_r-48" target="QZAKfAFqV-frmJR9LW_r-29" edge="1">
          <mxGeometry relative="1" as="geometry">
            <Array as="points">
              <mxPoint x="1530" y="-215" />
              <mxPoint x="1530" y="130" />
            </Array>
          </mxGeometry>
        </mxCell>
        <mxCell id="QZAKfAFqV-frmJR9LW_r-120" value="Find token and get back&amp;nbsp;" style="edgeLabel;html=1;align=center;verticalAlign=middle;resizable=0;points=[];fontSize=15;fontFamily=Helvetica;fontColor=#B81A1A;" parent="QZAKfAFqV-frmJR9LW_r-119" vertex="1" connectable="0">
          <mxGeometry x="-0.3282" y="3" relative="1" as="geometry">
            <mxPoint y="41" as="offset" />
          </mxGeometry>
        </mxCell>
        <mxCell id="QZAKfAFqV-frmJR9LW_r-48" value="DB" style="strokeWidth=2;html=1;shape=mxgraph.flowchart.database;whiteSpace=wrap;fontFamily=Helvetica;fontSize=25;fillColor=#e6d0de;strokeColor=#996185;gradientColor=#d5739d;" parent="1" vertex="1">
          <mxGeometry x="1380" y="-280" width="90" height="90" as="geometry" />
        </mxCell>
        <mxCell id="QZAKfAFqV-frmJR9LW_r-99" style="edgeStyle=orthogonalEdgeStyle;rounded=0;orthogonalLoop=1;jettySize=auto;html=1;fontFamily=Helvetica;fontSize=15;strokeColor=#FF0080;exitX=1;exitY=0.5;exitDx=0;exitDy=0;" parent="1" source="QZAKfAFqV-frmJR9LW_r-93" target="QZAKfAFqV-frmJR9LW_r-48" edge="1">
          <mxGeometry relative="1" as="geometry">
            <mxPoint x="1150" y="-60" as="sourcePoint" />
            <Array as="points">
              <mxPoint x="1430" y="-100" />
            </Array>
          </mxGeometry>
        </mxCell>
        <mxCell id="QZAKfAFqV-frmJR9LW_r-133" value="&lt;span style=&quot;&quot;&gt;Save a user in DB&lt;/span&gt;" style="edgeLabel;html=1;align=center;verticalAlign=middle;resizable=0;points=[];fontSize=15;fontFamily=Helvetica;fontColor=#FF0080;" parent="QZAKfAFqV-frmJR9LW_r-99" vertex="1" connectable="0">
          <mxGeometry x="-0.3198" y="-3" relative="1" as="geometry">
            <mxPoint x="53" y="-3" as="offset" />
          </mxGeometry>
        </mxCell>
        <mxCell id="QZAKfAFqV-frmJR9LW_r-132" style="edgeStyle=orthogonalEdgeStyle;rounded=0;orthogonalLoop=1;jettySize=auto;html=1;fontFamily=Helvetica;fontSize=15;fontColor=#00994D;startArrow=none;startFill=0;endArrow=classic;endFill=1;strokeColor=#999900;entryX=0.5;entryY=0;entryDx=0;entryDy=0;entryPerimeter=0;exitX=0.5;exitY=0;exitDx=0;exitDy=0;" parent="1" source="QZAKfAFqV-frmJR9LW_r-93" target="QZAKfAFqV-frmJR9LW_r-48" edge="1">
          <mxGeometry relative="1" as="geometry">
            <mxPoint x="1020" y="-320" as="targetPoint" />
          </mxGeometry>
        </mxCell>
        <mxCell id="QZAKfAFqV-frmJR9LW_r-134" value="&lt;font color=&quot;#999900&quot;&gt;Update user to set enable&lt;/font&gt;" style="edgeLabel;html=1;align=center;verticalAlign=middle;resizable=0;points=[];fontSize=15;fontFamily=Helvetica;fontColor=#00994D;" parent="QZAKfAFqV-frmJR9LW_r-132" vertex="1" connectable="0">
          <mxGeometry x="0.1103" y="1" relative="1" as="geometry">
            <mxPoint as="offset" />
          </mxGeometry>
        </mxCell>
        <mxCell id="QZAKfAFqV-frmJR9LW_r-93" value="&lt;font style=&quot;font-size: 15px&quot;&gt;UserRepo&lt;/font&gt;" style="whiteSpace=wrap;html=1;fontFamily=Helvetica;fontSize=30;fillColor=#e1d5e7;strokeColor=#9673a6;" parent="1" vertex="1">
          <mxGeometry x="960" y="-130" width="120" height="60" as="geometry" />
        </mxCell>
        <mxCell id="QZAKfAFqV-frmJR9LW_r-111" value="&lt;font color=&quot;#550dff&quot;&gt;Send a validation token Email to user to confirm&lt;/font&gt;" style="text;html=1;resizable=0;autosize=1;align=center;verticalAlign=middle;points=[];fillColor=none;strokeColor=none;rounded=0;fontFamily=Helvetica;fontSize=15;" parent="1" vertex="1">
          <mxGeometry x="120" y="200" width="330" height="20" as="geometry" />
        </mxCell>
        <mxCell id="QZAKfAFqV-frmJR9LW_r-116" style="edgeStyle=orthogonalEdgeStyle;rounded=0;orthogonalLoop=1;jettySize=auto;html=1;fontFamily=Helvetica;fontSize=15;strokeColor=#550DFF;" parent="1" source="QZAKfAFqV-frmJR9LW_r-113" edge="1">
          <mxGeometry relative="1" as="geometry">
            <mxPoint x="1430" y="-160" as="targetPoint" />
          </mxGeometry>
        </mxCell>
        <mxCell id="QZAKfAFqV-frmJR9LW_r-117" value="Save a token in DB" style="edgeLabel;html=1;align=center;verticalAlign=middle;resizable=0;points=[];fontSize=15;fontFamily=Helvetica;fontColor=#550DFF;" parent="QZAKfAFqV-frmJR9LW_r-116" vertex="1" connectable="0">
          <mxGeometry x="0.096" y="-1" relative="1" as="geometry">
            <mxPoint as="offset" />
          </mxGeometry>
        </mxCell>
        <mxCell id="QZAKfAFqV-frmJR9LW_r-113" value="ConfirmEmailTokenRepo" style="whiteSpace=wrap;html=1;fontFamily=Helvetica;fontSize=15;fillColor=#e1d5e7;strokeColor=#9673a6;" parent="1" vertex="1">
          <mxGeometry x="1100" y="-30" width="220" height="60" as="geometry" />
        </mxCell>
        <mxCell id="0kT4AOMkLd3rgz62vo-s-43" style="edgeStyle=orthogonalEdgeStyle;rounded=0;orthogonalLoop=1;jettySize=auto;html=1;exitX=0;exitY=0.3333333333333333;exitDx=0;exitDy=0;exitPerimeter=0;entryX=0;entryY=0.5;entryDx=0;entryDy=0;fontSize=15;fontColor=#990099;strokeColor=#14B383;" edge="1" parent="1" source="QZAKfAFqV-frmJR9LW_r-137" target="0kT4AOMkLd3rgz62vo-s-2">
          <mxGeometry relative="1" as="geometry">
            <Array as="points">
              <mxPoint x="40" y="1050" />
              <mxPoint x="40" y="895" />
            </Array>
          </mxGeometry>
        </mxCell>
        <mxCell id="QZAKfAFqV-frmJR9LW_r-137" value="" style="shape=umlActor;verticalLabelPosition=bottom;verticalAlign=top;html=1;outlineConnect=0;fontFamily=Helvetica;fontStyle=0;fontSize=15;fillColor=#f0a30a;strokeColor=#BD7000;fontColor=#000000;" parent="1" vertex="1">
          <mxGeometry x="70" y="1020" width="50" height="90" as="geometry" />
        </mxCell>
        <mxCell id="0kT4AOMkLd3rgz62vo-s-1" value="&lt;font size=&quot;1&quot;&gt;&lt;b style=&quot;font-size: 30px&quot;&gt;User Login Workflow&lt;/b&gt;&lt;/font&gt;" style="text;html=1;resizable=0;autosize=1;align=center;verticalAlign=middle;points=[];fillColor=#f8cecc;strokeColor=#b85450;rounded=0;fontFamily=Helvetica;fontSize=15;gradientColor=none;" vertex="1" parent="1">
          <mxGeometry x="30" y="620" width="310" height="30" as="geometry" />
        </mxCell>
        <mxCell id="0kT4AOMkLd3rgz62vo-s-5" style="edgeStyle=orthogonalEdgeStyle;rounded=0;orthogonalLoop=1;jettySize=auto;html=1;exitX=1;exitY=0.5;exitDx=0;exitDy=0;entryX=0;entryY=0.5;entryDx=0;entryDy=0;fontSize=14;strokeColor=#14B383;" edge="1" parent="1" source="0kT4AOMkLd3rgz62vo-s-2" target="0kT4AOMkLd3rgz62vo-s-3">
          <mxGeometry relative="1" as="geometry">
            <mxPoint x="445" y="955" as="sourcePoint" />
          </mxGeometry>
        </mxCell>
        <mxCell id="0kT4AOMkLd3rgz62vo-s-15" value="&lt;font color=&quot;#f7f7f7&quot; style=&quot;font-size: 16px ; background-color: rgb(20 , 179 , 131)&quot;&gt;Verify&lt;/font&gt;" style="edgeLabel;html=1;align=center;verticalAlign=middle;resizable=0;points=[];fontSize=14;" vertex="1" connectable="0" parent="0kT4AOMkLd3rgz62vo-s-5">
          <mxGeometry x="-0.0333" y="1" relative="1" as="geometry">
            <mxPoint x="1" y="1" as="offset" />
          </mxGeometry>
        </mxCell>
        <mxCell id="0kT4AOMkLd3rgz62vo-s-20" style="edgeStyle=orthogonalEdgeStyle;rounded=0;orthogonalLoop=1;jettySize=auto;html=1;exitX=0.5;exitY=1;exitDx=0;exitDy=0;entryX=0.5;entryY=0;entryDx=0;entryDy=0;fontSize=16;fontColor=#F7F7F7;strokeColor=#990099;" edge="1" parent="1" source="0kT4AOMkLd3rgz62vo-s-2" target="0kT4AOMkLd3rgz62vo-s-19">
          <mxGeometry relative="1" as="geometry">
            <Array as="points">
              <mxPoint x="390" y="990" />
              <mxPoint x="670" y="990" />
            </Array>
          </mxGeometry>
        </mxCell>
        <mxCell id="0kT4AOMkLd3rgz62vo-s-24" value="&lt;span style=&quot;background-color: rgb(207 , 74 , 88)&quot;&gt;Find the user&lt;/span&gt;" style="edgeLabel;html=1;align=center;verticalAlign=middle;resizable=0;points=[];fontSize=16;fontColor=#F7F7F7;" vertex="1" connectable="0" parent="0kT4AOMkLd3rgz62vo-s-20">
          <mxGeometry x="-0.0448" y="2" relative="1" as="geometry">
            <mxPoint as="offset" />
          </mxGeometry>
        </mxCell>
        <mxCell id="0kT4AOMkLd3rgz62vo-s-41" style="edgeStyle=orthogonalEdgeStyle;rounded=0;orthogonalLoop=1;jettySize=auto;html=1;exitX=0.25;exitY=1;exitDx=0;exitDy=0;entryX=0.75;entryY=0.1;entryDx=0;entryDy=0;entryPerimeter=0;fontSize=15;fontColor=#990099;strokeColor=#990099;" edge="1" parent="1" source="0kT4AOMkLd3rgz62vo-s-2" target="QZAKfAFqV-frmJR9LW_r-137">
          <mxGeometry relative="1" as="geometry">
            <Array as="points">
              <mxPoint x="280" y="920" />
              <mxPoint x="280" y="980" />
              <mxPoint x="190" y="980" />
              <mxPoint x="190" y="1029" />
            </Array>
          </mxGeometry>
        </mxCell>
        <mxCell id="0kT4AOMkLd3rgz62vo-s-42" value="Generate a JwtToken" style="edgeLabel;html=1;align=center;verticalAlign=middle;resizable=0;points=[];fontSize=15;fontColor=#990099;" vertex="1" connectable="0" parent="0kT4AOMkLd3rgz62vo-s-41">
          <mxGeometry x="-0.2336" y="2" relative="1" as="geometry">
            <mxPoint x="1" as="offset" />
          </mxGeometry>
        </mxCell>
        <mxCell id="0kT4AOMkLd3rgz62vo-s-2" value="LoginController" style="html=1;fillColor=#dae8fc;strokeColor=#6c8ebf;fontFamily=Helvetica;fontStyle=0;fontSize=15;" vertex="1" parent="1">
          <mxGeometry x="210" y="870" width="210" height="50" as="geometry" />
        </mxCell>
        <mxCell id="0kT4AOMkLd3rgz62vo-s-7" style="edgeStyle=orthogonalEdgeStyle;rounded=0;orthogonalLoop=1;jettySize=auto;html=1;exitX=0.5;exitY=1;exitDx=0;exitDy=0;entryX=0;entryY=0.5;entryDx=0;entryDy=0;fontSize=14;strokeColor=#14B383;" edge="1" parent="1" source="0kT4AOMkLd3rgz62vo-s-3" target="0kT4AOMkLd3rgz62vo-s-6">
          <mxGeometry relative="1" as="geometry" />
        </mxCell>
        <mxCell id="0kT4AOMkLd3rgz62vo-s-3" value="&lt;font style=&quot;font-size: 14px&quot;&gt;AuthenticationManager&lt;/font&gt;" style="ellipse;whiteSpace=wrap;html=1;fillColor=#f8cecc;strokeColor=#b85450;" vertex="1" parent="1">
          <mxGeometry x="505" y="680" width="190" height="80" as="geometry" />
        </mxCell>
        <mxCell id="0kT4AOMkLd3rgz62vo-s-8" style="edgeStyle=orthogonalEdgeStyle;rounded=0;orthogonalLoop=1;jettySize=auto;html=1;exitX=1;exitY=0.5;exitDx=0;exitDy=0;entryX=0.5;entryY=0;entryDx=0;entryDy=0;fontSize=14;strokeColor=#14B383;" edge="1" parent="1" source="0kT4AOMkLd3rgz62vo-s-6" target="0kT4AOMkLd3rgz62vo-s-2">
          <mxGeometry relative="1" as="geometry" />
        </mxCell>
        <mxCell id="0kT4AOMkLd3rgz62vo-s-9" value="&lt;font color=&quot;#14b383&quot;&gt;True&lt;/font&gt;" style="edgeLabel;html=1;align=center;verticalAlign=middle;resizable=0;points=[];fontSize=14;" vertex="1" connectable="0" parent="0kT4AOMkLd3rgz62vo-s-8">
          <mxGeometry x="-0.4817" relative="1" as="geometry">
            <mxPoint as="offset" />
          </mxGeometry>
        </mxCell>
        <mxCell id="0kT4AOMkLd3rgz62vo-s-10" style="edgeStyle=orthogonalEdgeStyle;rounded=0;orthogonalLoop=1;jettySize=auto;html=1;exitX=0.5;exitY=0;exitDx=0;exitDy=0;fontSize=14;strokeColor=#14B383;" edge="1" parent="1" source="0kT4AOMkLd3rgz62vo-s-6" target="0kT4AOMkLd3rgz62vo-s-11">
          <mxGeometry relative="1" as="geometry">
            <mxPoint x="770" y="670" as="targetPoint" />
          </mxGeometry>
        </mxCell>
        <mxCell id="0kT4AOMkLd3rgz62vo-s-14" value="&lt;font color=&quot;#14b383&quot;&gt;false&lt;/font&gt;" style="edgeLabel;html=1;align=center;verticalAlign=middle;resizable=0;points=[];fontSize=14;" vertex="1" connectable="0" parent="0kT4AOMkLd3rgz62vo-s-10">
          <mxGeometry x="-0.52" y="3" relative="1" as="geometry">
            <mxPoint as="offset" />
          </mxGeometry>
        </mxCell>
        <mxCell id="0kT4AOMkLd3rgz62vo-s-6" value="&lt;font style=&quot;font-size: 15px ; background-color: rgb(184 , 26 , 26)&quot; color=&quot;#ffffff&quot;&gt;isAuthenticated&lt;/font&gt;" style="triangle;whiteSpace=wrap;html=1;fontSize=14;direction=south;fillColor=#d80073;fontColor=#ffffff;strokeColor=#A50040;gradientColor=#ffffff;" vertex="1" parent="1">
          <mxGeometry x="560" y="810" width="80" height="60" as="geometry" />
        </mxCell>
        <mxCell id="0kT4AOMkLd3rgz62vo-s-17" style="edgeStyle=orthogonalEdgeStyle;rounded=0;orthogonalLoop=1;jettySize=auto;html=1;fontSize=16;fontColor=#F7F7F7;strokeColor=#14B383;" edge="1" parent="1" source="0kT4AOMkLd3rgz62vo-s-11" target="QZAKfAFqV-frmJR9LW_r-137">
          <mxGeometry relative="1" as="geometry" />
        </mxCell>
        <mxCell id="0kT4AOMkLd3rgz62vo-s-11" value="AuthenticationException" style="shape=hexagon;perimeter=hexagonPerimeter2;whiteSpace=wrap;html=1;fixedSize=1;fontSize=14;fillColor=#a20025;fontColor=#ffffff;strokeColor=#6F0000;" vertex="1" parent="1">
          <mxGeometry x="830" y="900" width="170" height="80" as="geometry" />
        </mxCell>
        <mxCell id="0kT4AOMkLd3rgz62vo-s-23" style="edgeStyle=orthogonalEdgeStyle;rounded=0;orthogonalLoop=1;jettySize=auto;html=1;exitX=0.5;exitY=1;exitDx=0;exitDy=0;fontSize=16;fontColor=#F7F7F7;strokeColor=#990099;entryX=0;entryY=0.5;entryDx=0;entryDy=0;" edge="1" parent="1" source="0kT4AOMkLd3rgz62vo-s-19" target="0kT4AOMkLd3rgz62vo-s-22">
          <mxGeometry relative="1" as="geometry">
            <mxPoint x="770" y="1090" as="targetPoint" />
            <Array as="points">
              <mxPoint x="700" y="1120" />
            </Array>
          </mxGeometry>
        </mxCell>
        <mxCell id="0kT4AOMkLd3rgz62vo-s-29" value="Call DAO to find" style="edgeLabel;html=1;align=center;verticalAlign=middle;resizable=0;points=[];fontSize=15;fontColor=#990099;" vertex="1" connectable="0" parent="0kT4AOMkLd3rgz62vo-s-23">
          <mxGeometry x="-0.264" y="-4" relative="1" as="geometry">
            <mxPoint as="offset" />
          </mxGeometry>
        </mxCell>
        <mxCell id="0kT4AOMkLd3rgz62vo-s-19" value="UserService" style="rounded=0;whiteSpace=wrap;html=1;fontFamily=Helvetica;fontStyle=0;fontSize=15;fillColor=#fff2cc;strokeColor=#d6b656;" vertex="1" parent="1">
          <mxGeometry x="620" y="970" width="160" height="60" as="geometry" />
        </mxCell>
        <mxCell id="0kT4AOMkLd3rgz62vo-s-27" style="edgeStyle=orthogonalEdgeStyle;rounded=0;orthogonalLoop=1;jettySize=auto;html=1;exitX=1;exitY=0.5;exitDx=0;exitDy=0;entryX=0.5;entryY=1;entryDx=0;entryDy=0;entryPerimeter=0;fontSize=15;fontColor=#FF4108;strokeColor=#990099;" edge="1" parent="1" source="0kT4AOMkLd3rgz62vo-s-22" target="0kT4AOMkLd3rgz62vo-s-26">
          <mxGeometry relative="1" as="geometry" />
        </mxCell>
        <mxCell id="0kT4AOMkLd3rgz62vo-s-28" value="Find a user from DB" style="edgeLabel;html=1;align=center;verticalAlign=middle;resizable=0;points=[];fontSize=15;fontColor=#990099;" vertex="1" connectable="0" parent="0kT4AOMkLd3rgz62vo-s-27">
          <mxGeometry x="-0.08" y="1" relative="1" as="geometry">
            <mxPoint as="offset" />
          </mxGeometry>
        </mxCell>
        <mxCell id="0kT4AOMkLd3rgz62vo-s-35" value="" style="edgeStyle=orthogonalEdgeStyle;rounded=0;orthogonalLoop=1;jettySize=auto;html=1;fontSize=15;fontColor=#FFFFFF;strokeColor=#990099;entryX=0.5;entryY=0;entryDx=0;entryDy=0;" edge="1" parent="1" source="0kT4AOMkLd3rgz62vo-s-22" target="0kT4AOMkLd3rgz62vo-s-30">
          <mxGeometry relative="1" as="geometry">
            <Array as="points">
              <mxPoint x="930" y="1200" />
            </Array>
          </mxGeometry>
        </mxCell>
        <mxCell id="0kT4AOMkLd3rgz62vo-s-22" value="&lt;font style=&quot;font-size: 16px&quot;&gt;UserRepo&lt;/font&gt;" style="whiteSpace=wrap;html=1;fontFamily=Helvetica;fontSize=30;fillColor=#e1d5e7;strokeColor=#9673a6;align=center;" vertex="1" parent="1">
          <mxGeometry x="855" y="1060" width="120" height="60" as="geometry" />
        </mxCell>
        <mxCell id="0kT4AOMkLd3rgz62vo-s-25" style="edgeStyle=orthogonalEdgeStyle;rounded=0;orthogonalLoop=1;jettySize=auto;html=1;exitX=0.5;exitY=1;exitDx=0;exitDy=0;fontSize=16;fontColor=#F7F7F7;strokeColor=#990099;" edge="1" parent="1" source="0kT4AOMkLd3rgz62vo-s-22" target="0kT4AOMkLd3rgz62vo-s-22">
          <mxGeometry relative="1" as="geometry" />
        </mxCell>
        <mxCell id="0kT4AOMkLd3rgz62vo-s-26" value="DB" style="strokeWidth=2;html=1;shape=mxgraph.flowchart.database;whiteSpace=wrap;fontFamily=Helvetica;fontSize=25;fillColor=#e6d0de;strokeColor=#996185;gradientColor=#d5739d;" vertex="1" parent="1">
          <mxGeometry x="1010" y="720" width="90" height="90" as="geometry" />
        </mxCell>
        <mxCell id="0kT4AOMkLd3rgz62vo-s-34" style="edgeStyle=orthogonalEdgeStyle;rounded=0;orthogonalLoop=1;jettySize=auto;html=1;exitX=0.5;exitY=1;exitDx=0;exitDy=0;entryX=1;entryY=0.5;entryDx=0;entryDy=0;fontSize=15;fontColor=#FFFFFF;strokeColor=#990099;" edge="1" parent="1" source="0kT4AOMkLd3rgz62vo-s-30" target="0kT4AOMkLd3rgz62vo-s-32">
          <mxGeometry relative="1" as="geometry" />
        </mxCell>
        <mxCell id="0kT4AOMkLd3rgz62vo-s-37" value="&lt;font color=&quot;#990099&quot;&gt;False&lt;/font&gt;" style="edgeLabel;html=1;align=center;verticalAlign=middle;resizable=0;points=[];fontSize=15;fontColor=#FFFFFF;" vertex="1" connectable="0" parent="0kT4AOMkLd3rgz62vo-s-34">
          <mxGeometry x="-0.44" y="-2" relative="1" as="geometry">
            <mxPoint as="offset" />
          </mxGeometry>
        </mxCell>
        <mxCell id="0kT4AOMkLd3rgz62vo-s-38" style="edgeStyle=orthogonalEdgeStyle;rounded=0;orthogonalLoop=1;jettySize=auto;html=1;exitX=1;exitY=0.5;exitDx=0;exitDy=0;fontSize=15;fontColor=#990099;strokeColor=#990099;" edge="1" parent="1" source="0kT4AOMkLd3rgz62vo-s-30">
          <mxGeometry relative="1" as="geometry">
            <mxPoint x="320" y="919" as="targetPoint" />
            <Array as="points">
              <mxPoint x="760" y="1270" />
              <mxPoint x="320" y="1270" />
            </Array>
          </mxGeometry>
        </mxCell>
        <mxCell id="0kT4AOMkLd3rgz62vo-s-39" value="True" style="edgeLabel;html=1;align=center;verticalAlign=middle;resizable=0;points=[];fontSize=15;fontColor=#990099;" vertex="1" connectable="0" parent="0kT4AOMkLd3rgz62vo-s-38">
          <mxGeometry x="-0.7581" y="1" relative="1" as="geometry">
            <mxPoint x="61" y="-21" as="offset" />
          </mxGeometry>
        </mxCell>
        <mxCell id="0kT4AOMkLd3rgz62vo-s-40" value="Return a finding user" style="edgeLabel;html=1;align=center;verticalAlign=middle;resizable=0;points=[];fontSize=15;fontColor=#990099;" vertex="1" connectable="0" parent="0kT4AOMkLd3rgz62vo-s-38">
          <mxGeometry x="-0.3116" y="2" relative="1" as="geometry">
            <mxPoint x="56" y="-2" as="offset" />
          </mxGeometry>
        </mxCell>
        <mxCell id="0kT4AOMkLd3rgz62vo-s-30" value="&lt;span style=&quot;background-color: rgb(184 , 26 , 26)&quot;&gt;isUserExist&lt;/span&gt;" style="triangle;whiteSpace=wrap;html=1;labelBackgroundColor=#14B383;fontSize=15;fontColor=#ffffff;direction=south;fillColor=#a20025;strokeColor=#6F0000;gradientColor=#ffffff;" vertex="1" parent="1">
          <mxGeometry x="720" y="1170" width="80" height="60" as="geometry" />
        </mxCell>
        <mxCell id="0kT4AOMkLd3rgz62vo-s-36" style="edgeStyle=orthogonalEdgeStyle;rounded=0;orthogonalLoop=1;jettySize=auto;html=1;exitX=0;exitY=0.5;exitDx=0;exitDy=0;fontSize=15;fontColor=#FFFFFF;strokeColor=#990099;" edge="1" parent="1" source="0kT4AOMkLd3rgz62vo-s-32" target="QZAKfAFqV-frmJR9LW_r-137">
          <mxGeometry relative="1" as="geometry" />
        </mxCell>
        <mxCell id="0kT4AOMkLd3rgz62vo-s-32" value="UserNotFoundException" style="shape=hexagon;perimeter=hexagonPerimeter2;whiteSpace=wrap;html=1;fixedSize=1;fontSize=14;fillColor=#a20025;fontColor=#ffffff;strokeColor=#6F0000;" vertex="1" parent="1">
          <mxGeometry x="370" y="1100" width="180" height="80" as="geometry" />
        </mxCell>
      </root>
    </mxGraphModel>
  </diagram>
</mxfile>
